<?xml version="1.0" encoding="UTF-8" standalone="no"?><!-- Generator: Gravit.io --><svg xmlns="http://www.w3.org/2000/svg" xmlns:xlink="http://www.w3.org/1999/xlink" style="isolation:isolate" viewBox="0 0 32 32" width="32pt" height="32pt"><defs><clipPath id="_clipPath_tFje8ocWnDKnRCdifQx30Kj8KAVSokvu"><rect width="32" height="32"/></clipPath></defs><g clip-path="url(#_clipPath_tFje8ocWnDKnRCdifQx30Kj8KAVSokvu)"><path d=" M 12.427 27.837 L 13.77 29.18 C 13.77 29.18 13.77 29.18 13.77 29.18 C 14.36 29.78 15.16 30.11 16 30.11 C 16.84 30.11 17.64 29.78 18.23 29.18 C 18.23 29.18 18.23 29.18 18.23 29.18 L 29.18 18.23 L 29.18 18.23 C 29.18 18.23 29.18 18.23 29.18 18.23 C 29.78 17.64 30.11 16.84 30.11 16 C 30.11 15.16 29.78 14.36 29.18 13.77 C 29.18 13.77 29.18 13.77 29.18 13.77 L 18.23 2.82 C 18.23 2.82 18.23 2.82 18.23 2.82 C 17.64 2.22 16.84 1.89 16 1.89 C 15.16 1.89 14.36 2.22 13.77 2.82 C 13.77 2.82 13.77 2.82 13.77 2.82 L 2.82 13.77 C 2.82 13.77 2.82 13.77 2.82 13.77 C 2.22 14.36 1.89 15.16 1.89 16 C 1.89 16.84 2.22 17.64 2.82 18.23 C 2.82 18.23 2.82 18.23 2.82 18.23 L 9.847 25.257 C 9.884 25.023 9.921 24.787 9.96 24.55 C 10.046 23.967 10.129 23.383 10.209 22.799 L 4.23 16.82 C 4.01 16.6 3.89 16.31 3.89 16 C 3.89 15.69 4.01 15.4 4.23 15.18 L 15.18 4.23 C 15.4 4.01 15.69 3.89 16 3.89 C 16.31 3.89 16.6 4.01 16.82 4.23 L 27.77 15.18 C 27.99 15.4 28.11 15.69 28.11 16 C 28.11 16.31 27.99 16.6 27.77 16.82 L 27.77 16.82 L 16.82 27.77 C 16.6 27.99 16.31 28.11 16 28.11 C 15.69 28.11 15.4 27.99 15.18 27.77 L 12.856 25.446 C 12.793 25.86 12.724 26.275 12.65 26.69 C 12.582 27.079 12.505 27.458 12.427 27.837 Z " fill-rule="evenodd" fill="rgb(0,0,0)"/><path d=" M 10 30 Q 11.234 30 13 11 Q 14.578 17 16 17 Q 17.422 17 19 11 L 20 20" fill="none" vector-effect="non-scaling-stroke" stroke-width="2" stroke="rgb(0,0,0)" stroke-linejoin="round" stroke-linecap="round" stroke-miterlimit="3"/></g></svg>